<?xml version="1.0" encoding="utf-8"?>
<!-- Generator: Adobe Illustrator 17.0.0, SVG Export Plug-In . SVG Version: 6.00 Build 0)  -->
<!DOCTYPE svg PUBLIC "-//W3C//DTD SVG 1.1//EN" "http://www.w3.org/Graphics/SVG/1.1/DTD/svg11.dtd">
<svg version="1.1" id="Layer_1" xmlns="http://www.w3.org/2000/svg" xmlns:xlink="http://www.w3.org/1999/xlink" x="0px" y="0px"
	 width="512px" height="512px" viewBox="0 0 512 512" enable-background="new 0 0 512 512" xml:space="preserve">
<path fill="#1960AE" d="M393.265,129.522c6.627,0,12-5.373,12-12s-5.373-12-12-12c-15.464,0.009-28.008-12.519-28.017-27.983
	c-0.01-15.464,12.519-28.008,27.983-28.017c5.087-0.003,10.079,1.38,14.439,4h31.7c-13.26-25.469-44.656-35.366-70.124-22.106
	s-35.366,44.656-22.106,70.124c8.954,17.198,26.734,27.985,46.124,27.982H393.265z"/>
<path fill="#1960AE" d="M272.211,129.522c6.627,0,12-5.373,12-12s-5.373-12-12-12c-15.464,0.012-28.01-12.514-28.022-27.978
	s12.514-28.01,27.978-28.022c5.089-0.004,10.083,1.379,14.444,4h31.7c-13.26-25.469-44.656-35.366-70.124-22.106
	S212.82,76.071,226.08,101.54c8.954,17.198,26.734,27.985,46.124,27.982H272.211z"/>
<path fill="#1960AE" d="M468.927,80.349c1.561-6.441-2.394-12.928-8.835-14.489c-0.926-0.224-1.874-0.338-2.827-0.338h-74.548
	c-6.639,5.814-7.308,15.909-1.494,22.548c3.039,3.47,7.429,5.458,12.042,5.452c13.255,0,24,10.745,24,24s-10.745,24-24,24
	c-35.322,0.024-63.976-28.591-64-63.914c-0.003-4.056,0.38-8.103,1.144-12.086h-68.745c-6.64,5.813-7.31,15.907-1.497,22.547
	c3.039,3.472,7.431,5.46,12.044,5.453c13.255,0,24,10.745,24,24s-10.745,24-24,24c-35.32,0.026-63.974-28.586-64-63.906
	c-0.003-4.059,0.38-8.108,1.145-12.094H140.61c-6.64,5.813-7.31,15.907-1.497,22.547c3.039,3.472,7.431,5.46,12.044,5.453
	c13.255,0,24,10.745,24,24s-10.745,24-24,24c-35.32,0.026-63.974-28.586-64-63.906c-0.003-4.059,0.38-8.108,1.145-12.094h-7.037
	c-5.539-0.001-10.36,3.789-11.665,9.173l-18.622,76.827h400.7L468.927,80.349z"/>
<path fill="#1960AE" d="M151.157,129.522c6.627,0,12-5.373,12-12s-5.373-12-12-12c-15.464,0.009-28.008-12.519-28.017-27.983
	c-0.009-15.464,12.519-28.008,27.983-28.017c5.087-0.003,10.079,1.38,14.439,4h31.7c-13.259-25.47-44.655-35.368-70.125-22.109
	s-35.368,44.655-22.109,70.125c8.954,17.2,26.735,27.987,46.126,27.984H151.157z"/>
<path fill="#1960AE" d="M469.265,298.541V129.889l-36.727,151.5C445.667,284.974,458.088,290.775,469.265,298.541z"/>
<path fill="#1960AE" d="M401,277.174c6.638,0.001,13.265,0.551,19.813,1.645l27.951-115.3H48.069L5.6,338.694
	c-1.561,6.441,2.394,12.928,8.835,14.489c0.926,0.224,1.874,0.338,2.827,0.338h271.959C307.247,307.517,351.59,277.23,401,277.174z
	 M341.265,197.522h32c6.627,0,12,5.373,12,12s-5.373,12-12,12h-32c-6.627,0-12-5.373-12-12S334.638,197.522,341.265,197.522z
	 M109.265,317.522h-32c-6.627,0-12-5.373-12-12s5.373-12,12-12h32c6.627,0,12,5.373,12,12S115.892,317.522,109.265,317.522
	L109.265,317.522z M117.265,269.522h-32c-6.627,0-12-5.373-12-12s5.373-12,12-12h32c6.627,0,12,5.373,12,12
	S123.892,269.522,117.265,269.522z M133.265,221.522h-32c-6.627,0-12-5.373-12-12s5.373-12,12-12h32c6.627,0,12,5.373,12,12
	S139.892,221.522,133.265,221.522z M189.265,317.522h-32c-6.627,0-12-5.373-12-12s5.373-12,12-12h32c6.627,0,12,5.373,12,12
	S195.892,317.522,189.265,317.522z M197.265,269.522h-32c-6.627,0-12-5.373-12-12s5.373-12,12-12h32c6.627,0,12,5.373,12,12
	S203.892,269.522,197.265,269.522z M213.265,221.522h-32c-6.627,0-12-5.373-12-12s5.373-12,12-12h32c6.627,0,12,5.373,12,12
	S219.892,221.522,213.265,221.522z M269.265,317.522h-32c-6.627,0-12-5.373-12-12s5.373-12,12-12h32c6.627,0,12,5.373,12,12
	S275.892,317.522,269.265,317.522z M277.265,269.522h-32c-6.627,0-12-5.373-12-12s5.373-12,12-12h32c6.627,0,12,5.373,12,12
	S283.892,269.522,277.265,269.522z M293.265,221.522h-32c-6.627,0-12-5.373-12-12s5.373-12,12-12h32c6.627,0,12,5.373,12,12
	S299.892,221.522,293.265,221.522z M325.265,245.522h32c6.627,0,12,5.373,12,12s-5.373,12-12,12h-32c-6.627,0-12-5.373-12-12
	S318.638,245.522,325.265,245.522z"/>
<path fill="#1960AE" d="M69.265,365.521v32c0,6.627,5.373,12,12,12h200.367c-1.519-14.764-0.294-29.682,3.613-44H69.265z"/>
<path fill="#1960AE" d="M497.265,65.522h-19.229c2.118,3.644,3.232,7.785,3.229,12v230.527c11.68,10.522,21.191,23.225,28,37.394
	V77.522C509.265,70.895,503.892,65.522,497.265,65.522z"/>
<path fill="#FDA810" d="M401,289.174c-59.647,0-108,48.353-108,108s48.353,108,108,108s108-48.353,108-108
	C508.933,337.555,460.619,289.241,401,289.174z M413,480.3v-11.126c0-6.627-5.373-12-12-12s-12,5.373-12,12V480.3
	c-36.828-5.376-65.753-34.301-71.129-71.129H329c6.627,0,12-5.373,12-12s-5.373-12-12-12h-11.129
	c5.377-36.827,34.302-65.75,71.129-71.126v11.129c0,6.627,5.373,12,12,12s12-5.373,12-12v-11.129
	c36.828,5.376,65.753,34.301,71.129,71.129H473c-6.627,0-12,5.373-12,12s5.373,12,12,12h11.129
	C478.751,446.001,449.827,474.924,413,480.3z"/>
<path fill="#FDA810" d="M424.515,356.688l-25.884,25.884l-24.265-12.132c-5.928-2.964-13.136-0.56-16.099,5.368
	c-2.964,5.928-0.56,13.136,5.367,16.099l32,16c4.62,2.309,10.199,1.404,13.851-2.248l32-32c4.674-4.698,4.655-12.296-0.044-16.971
	C436.76,352.032,429.196,352.031,424.515,356.688L424.515,356.688z"/>
</svg>
