<?xml version="1.0" encoding="utf-8"?>
<!-- Generator: Adobe Illustrator 17.0.0, SVG Export Plug-In . SVG Version: 6.00 Build 0)  -->
<!DOCTYPE svg PUBLIC "-//W3C//DTD SVG 1.1//EN" "http://www.w3.org/Graphics/SVG/1.1/DTD/svg11.dtd">
<svg version="1.1" id="Layer_1" xmlns="http://www.w3.org/2000/svg" xmlns:xlink="http://www.w3.org/1999/xlink" x="0px" y="0px"
	 width="512px" height="512px" viewBox="0 0 512 512" enable-background="new 0 0 512 512" xml:space="preserve">
<g>
	<circle fill="#1960AE" cx="256" cy="219.066" r="54.264"/>
</g>
<g>
	<path fill="#307DC4" d="M283.052,172.016c4.588,7.964,7.214,17.2,7.214,27.052c0,29.97-24.296,54.264-54.264,54.264
		c-9.85,0-19.088-2.626-27.052-7.214c9.37,16.264,26.932,27.214,47.052,27.214c29.97,0,54.264-24.294,54.264-54.264
		C310.264,198.948,299.316,181.386,283.052,172.016L283.052,172.016z"/>
</g>
<g>
	<g>
		<circle fill="#F79219" cx="395.102" cy="219.066" r="54.264"/>
	</g>
	<g>
		<path fill="#EF7816" d="M422.152,172.016c4.588,7.964,7.214,17.2,7.214,27.052c0,29.97-24.296,54.264-54.264,54.264
			c-9.85,0-19.088-2.626-27.052-7.214c9.37,16.264,26.932,27.214,47.052,27.214c29.97,0,54.264-24.294,54.264-54.264
			C449.366,198.948,438.416,181.386,422.152,172.016L422.152,172.016z"/>
	</g>
	<g>
		<circle fill="#F79219" cx="116.898" cy="219.066" r="54.264"/>
	</g>
	<g>
		<path fill="#EF7816" d="M143.95,172.016c4.588,7.964,7.214,17.2,7.214,27.052c0,29.97-24.296,54.264-54.264,54.264
			c-9.85,0-19.088-2.626-27.052-7.214c9.37,16.264,26.932,27.214,47.052,27.214c29.97,0,54.264-24.294,54.264-54.264
			C171.164,198.948,160.214,181.386,143.95,172.016L143.95,172.016z"/>
	</g>
</g>
<g>
	<circle fill="#F79219" cx="256" cy="89.876" r="54.264"/>
</g>
<g>
	<path fill="#EF7816" d="M283.052,42.826c4.588,7.964,7.214,17.2,7.214,27.052c0,29.97-24.296,54.264-54.264,54.264
		c-9.85,0-19.088-2.624-27.052-7.214c9.372,16.264,26.932,27.214,47.052,27.214c29.97,0,54.264-24.296,54.264-54.264
		C310.264,69.758,299.316,52.196,283.052,42.826z"/>
</g>
<g>
	<g>
		<circle fill="#FFC91D" cx="395.102" cy="89.876" r="54.264"/>
	</g>
	<g>
		<path fill="#FFA91A" d="M422.152,42.826c4.588,7.964,7.214,17.2,7.214,27.052c0,29.97-24.296,54.264-54.264,54.264
			c-9.85,0-19.088-2.624-27.052-7.214c9.372,16.264,26.932,27.214,47.052,27.214c29.97,0,54.264-24.296,54.264-54.264
			C449.366,69.758,438.416,52.196,422.152,42.826z"/>
	</g>
	<g>
		<circle fill="#FFC91D" cx="116.898" cy="89.876" r="54.264"/>
	</g>
	<g>
		<path fill="#FFA91A" d="M143.95,42.826c4.588,7.964,7.214,17.2,7.214,27.052c0,29.97-24.296,54.264-54.264,54.264
			c-9.85,0-19.088-2.624-27.052-7.214c9.372,16.264,26.932,27.214,47.052,27.214c29.97,0,54.264-24.296,54.264-54.264
			C171.164,69.758,160.214,52.196,143.95,42.826z"/>
	</g>
</g>
<g>
	<path fill="#FCC4AE" d="M361.144,298.5c-9.734,0-17.604,7.87-17.604,17.604v-8.744c-0.014-4.22-1.44-8.058-4.022-11.192
		c0-0.03,0-0.03,0-0.03c-10.444-12.608-31.14-5.184-31.158,11.222v-8.744c-0.884-23.198-34.192-23.42-35.18,0v-77.968
		c-1.07-23.54-34.42-23.296-35.18,0.622v123.64c0,1.964-1.902,3.366-3.778,2.784l-38.282-11.858
		c-22.986-6.362-34.466,25.514-12.796,35.298l-0.116,0.058c0,0,69.166,30.546,68.786,47.772h117.724v-9.326
		c0-5.392,1.574-10.668,4.576-15.186c3.002-4.488,4.606-9.764,4.606-15.186v-63.162C378.72,306.368,370.85,298.5,361.144,298.5
		L361.144,298.5z"/>
</g>
<g>
	<g>
		<path fill="#F2AD97" d="M361.144,298.5c-0.824,0-1.63,0.076-2.424,0.186v60.58c0,5.42-1.604,10.696-4.606,15.186
			c-3.002,4.518-4.576,9.792-4.576,15.186v9.326H234.19c10.162,7.064,17.75,14.27,17.624,20h117.724v-9.326
			c0-5.392,1.574-10.668,4.576-15.186c3.002-4.488,4.606-9.764,4.606-15.186v-63.162C378.72,306.368,370.85,298.5,361.144,298.5z"/>
	</g>
</g>
<g>
	<g>
		<path fill="#F79219" d="M173.144,361.294c-0.064-0.028-0.118-0.062-0.182-0.092c0.02,0.05,0.044,0.1,0.066,0.15L173.144,361.294z"
			/>
	</g>
</g>
<g>
	<g>
		<path fill="#F7CB15" d="M257.614,418.95H251.8C251.622,427.088,254.514,424.228,257.614,418.95z"/>
	</g>
</g>
<g>
	<path fill="#3470C6" d="M385.276,430.64v47.936c0,6.456-5.234,11.692-11.692,11.692H247.508c-6.458,0-11.692-5.234-11.692-11.692
		V430.64c0-6.458,5.234-11.692,11.692-11.692h126.076C380.04,418.95,385.276,424.184,385.276,430.64z"/>
</g>
<g>
	<path fill="#9CBAE5" d="M247.82,463.92c-2.202,0-4-1.78-4-4c0-2.2,1.798-4,4-4c2.2,0,4,1.8,4,4
		C251.82,462.14,250.02,463.92,247.82,463.92z M247.82,447.92c-2.202,0-4-1.78-4-4v-12.98c0-1.04,0.42-2.08,1.18-2.82
		c0.74-0.74,1.76-1.16,2.82-1.16h100.92c2.2,0,4,1.78,4,3.98c0,2.22-1.8,4-4,4h-96.92v8.98
		C251.82,446.14,250.02,447.92,247.82,447.92L247.82,447.92z"/>
</g>
<g>
	<path fill="#9DBEF4" d="M373.584,418.95h-8.308v39.628c0,6.458-5.234,11.692-11.692,11.692H235.818v8.308
		c0,6.458,5.234,11.692,11.692,11.692h126.076c6.456,0,11.692-5.234,11.692-11.692V430.64
		C385.276,424.184,380.04,418.95,373.584,418.95z"/>
</g>
<g>
	<path fill="#0869C1" d="M375.158,419.068c0.07,0.516,0.118,1.038,0.118,1.574v47.936c0,6.458-5.234,11.692-11.692,11.692H237.508
		c-0.536,0-1.058-0.048-1.574-0.118c0.77,5.712,5.652,10.118,11.574,10.118h126.076c6.456,0,11.692-5.234,11.692-11.692V430.64
		C385.276,424.718,380.868,419.838,375.158,419.068L375.158,419.068z"/>
</g>
</svg>
