<?xml version="1.0" encoding="utf-8"?>
<!-- Generator: Adobe Illustrator 17.0.0, SVG Export Plug-In . SVG Version: 6.00 Build 0)  -->
<!DOCTYPE svg PUBLIC "-//W3C//DTD SVG 1.1//EN" "http://www.w3.org/Graphics/SVG/1.1/DTD/svg11.dtd">
<svg version="1.1" id="Layer_1" xmlns="http://www.w3.org/2000/svg" xmlns:xlink="http://www.w3.org/1999/xlink" x="0px" y="0px"
	 width="512px" height="512px" viewBox="0 0 512 512" enable-background="new 0 0 512 512" xml:space="preserve">
<path fill="#1960AE" d="M211,286c0,24.813,20.188,45,45,45s45-20.188,45-45s-20.188-45-45-45S211,261.188,211,286z"/>
<path fill="#1960AE" d="M256,361c-49.629,0-90,40.371-90,90v61h180v-61C346,401.371,305.629,361,256,361z"/>
<path fill="#1960AE" d="M136,316c0-24.813-20.188-45-45-45s-45,20.188-45,45s20.188,45,45,45S136,340.813,136,316z"/>
<path fill="#1960AE" d="M466,316c0-24.813-20.188-45-45-45s-45,20.188-45,45s20.188,45,45,45S466,340.813,466,316z"/>
<path fill="#FDA810" d="M76,0L53.18,53.801L0,61.301l38.355,36.434L29.535,151L76,126.715L122.465,151l-8.82-53.266L151,61.301
	l-51.621-7.5L76,0z"/>
<path fill="#FDA810" d="M279.379,53.801L256,0l-22.82,53.801l-52.18,7.5l37.355,36.434L209.535,151L256,126.715L302.465,151
	l-8.82-53.266L331,61.301L279.379,53.801z"/>
<path fill="#FDA810" d="M436,0l-22.82,53.801l-52.18,7.5l37.355,36.434L389.535,151L436,126.715L482.465,151l-8.82-53.266
	L512,61.301l-52.621-7.5L436,0z"/>
<path fill="#1960AE" d="M421,391c-19.938,0-38.184,6.691-53.098,17.66C372.922,421.875,376,436.047,376,451v61h136v-31
	C512,431.293,470.707,391,421,391z"/>
<path fill="#1960AE" d="M0,481v31h136v-61c0-14.953,3.078-29.125,8.098-42.34C129.184,397.691,110.938,391,91,391
	C41.293,391,0,431.293,0,481z"/>
</svg>
