<?xml version="1.0" encoding="utf-8"?>
<!-- Generator: Adobe Illustrator 17.0.0, SVG Export Plug-In . SVG Version: 6.00 Build 0)  -->
<!DOCTYPE svg PUBLIC "-//W3C//DTD SVG 1.1//EN" "http://www.w3.org/Graphics/SVG/1.1/DTD/svg11.dtd">
<svg version="1.1" id="Layer_1" xmlns="http://www.w3.org/2000/svg" xmlns:xlink="http://www.w3.org/1999/xlink" x="0px" y="0px"
	 width="512px" height="512px" viewBox="0 0 512 512" enable-background="new 0 0 512 512" xml:space="preserve">
<path fill="#1960AE" d="M323.543,330.414c78.273,0,141.957-63.68,141.957-141.957c0-78.273-63.684-141.957-141.957-141.957
	s-141.957,63.684-141.957,141.957C181.586,266.734,245.27,330.414,323.543,330.414z M323.543,66.5
	c67.246,0,121.957,54.711,121.957,121.957s-54.711,121.957-121.957,121.957s-121.957-54.707-121.957-121.957
	C201.586,121.211,256.297,66.5,323.543,66.5z"/>
<path fill="#1960AE" d="M322.059,379.883C426.793,379.883,512,294.676,512,189.941S426.793,0,322.059,0
	S132.117,85.207,132.117,189.941c0,39.75,12.281,76.676,33.238,107.211l-31.07,31.07l-4.23-4.23c-3.906-3.906-10.238-3.906-14.145,0
	L14.934,424.969C5.305,434.598,0,447.402,0,461.02s5.305,26.418,14.934,36.047S37.363,512,50.98,512s26.422-5.305,36.051-14.934
	l100.98-100.977c1.875-1.875,2.926-4.418,2.926-7.07s-1.051-5.199-2.926-7.074l-4.234-4.23l31.07-31.07
	C245.383,367.602,282.313,379.883,322.059,379.883z M322.059,20C415.766,20,492,96.234,492,189.941s-76.234,169.941-169.941,169.941
	c-93.703,0-169.941-76.234-169.941-169.941S228.355,20,322.059,20z M72.891,482.926C67.035,488.777,59.258,492,50.98,492
	s-16.055-3.223-21.906-9.074c-12.082-12.078-12.082-31.734,0-43.816l93.906-93.906l4.23,4.227c0,0.004,0.004,0.004,0.004,0.008
	l39.582,39.582L72.891,482.926z M169.637,363.57l-21.207-21.207l29.203-29.203c6.504,7.609,13.598,14.703,21.207,21.207
	L169.637,363.57z"/>
<path fill="#FDA810" d="M289.309,162.172c5.523,0,10-4.477,10-10c0-6.883,2.945-13.465,8.074-18.059
	c5.203-4.66,11.934-6.797,18.961-6.02c11.102,1.227,20.051,10.176,21.277,21.277c1.078,9.789-3.738,19.199-12.277,23.973
	c-13.445,7.52-21.801,21.426-21.801,36.289v14.27c0,5.523,4.477,10,10,10c5.52,0,10-4.477,10-10v-14.27
	c0-7.629,4.43-14.844,11.563-18.832c15.57-8.707,24.359-25.832,22.395-43.625c-2.246-20.332-18.633-36.715-38.961-38.961
	c-12.563-1.387-25.145,2.621-34.5,11c-9.359,8.383-14.73,20.395-14.73,32.957C279.309,157.695,283.785,162.172,289.309,162.172z"/>
<path fill="#FDA810" d="M323.539,252.891c-2.629,0-5.207,1.07-7.066,2.93s-2.934,4.441-2.934,7.07c0,2.641,1.07,5.211,2.934,7.07
	c1.859,1.867,4.438,2.93,7.066,2.93c2.633,0,5.211-1.063,7.07-2.93c1.859-1.859,2.93-4.441,2.93-7.07s-1.066-5.211-2.93-7.07
	C328.75,253.961,326.172,252.891,323.539,252.891z"/>
</svg>
