<?xml version="1.0" encoding="utf-8"?>
<!-- Generator: Adobe Illustrator 17.0.0, SVG Export Plug-In . SVG Version: 6.00 Build 0)  -->
<!DOCTYPE svg PUBLIC "-//W3C//DTD SVG 1.1//EN" "http://www.w3.org/Graphics/SVG/1.1/DTD/svg11.dtd">
<svg version="1.1" id="Capa_1" xmlns="http://www.w3.org/2000/svg" xmlns:xlink="http://www.w3.org/1999/xlink" x="0px" y="0px"
	 width="512px" height="512px" viewBox="0 0 512 512" enable-background="new 0 0 512 512" xml:space="preserve">
<circle fill="#1960AE" cx="338.833" cy="173.833" r="7.5"/>
<circle fill="#1960AE" cx="368.833" cy="173.833" r="7.5"/>
<circle fill="#1960AE" cx="308.833" cy="173.833" r="7.5"/>
<path fill="#FDA810" d="M507.314,326.06c-17.447-7.063-31.485-20.707-39.089-37.819C496.49,256.495,512,215.822,512,173.167
	C512,77.683,434.317,0,338.833,0c-83.68,0-155.315,59.658-170.334,141.853c-0.744,4.075,1.955,7.981,6.03,8.726
	c4.068,0.742,7.98-1.956,8.726-6.03C196.971,69.483,262.4,15,338.833,15C426.047,15,497,85.954,497,173.167
	c0,40.438-15.26,78.924-42.97,108.368c-1.953,2.076-2.562,5.08-1.569,7.751c6.252,16.833,17.537,31.239,32.053,41.363
	c-3.298,0.456-6.64,0.684-10.014,0.684c-18.324,0-35.817-6.857-49.256-19.309c-2.393-2.217-5.944-2.634-8.784-1.03
	c-15.263,8.615-31.751,14.581-49.009,17.731c-4.075,0.744-6.775,4.65-6.031,8.725c0.743,4.076,4.654,6.771,8.725,6.031
	c17.154-3.131,33.617-8.803,49.011-16.878c15.6,12.76,35.05,19.729,55.345,19.729c11.335,0,22.376-2.143,32.814-6.37
	c2.832-1.146,4.686-3.896,4.686-6.952C512,329.957,510.146,327.207,507.314,326.06L507.314,326.06z"/>
<path fill="#FDA810" d="M189.459,334.21c2.165-3.334,3.423-7.308,3.423-11.57c0-11.748-9.558-21.306-21.306-21.306h-17.429
	c-4.143,0-7.5,3.358-7.5,7.5v60c0,1.995,0.795,3.908,2.208,5.315c1.406,1.4,3.309,2.185,5.292,2.185
	c0.033,0,16.056-0.071,20.472-0.071c13.041,0,23.65-10.609,23.65-23.65C198.27,345.187,194.829,338.549,189.459,334.21
	L189.459,334.21z M161.648,316.334h9.929c3.477,0,6.306,2.829,6.306,6.306s-2.829,6.306-6.306,6.306
	c-0.166,0-0.332,0.005-0.495,0.016h-9.434V316.334z M174.619,361.262c-2.388,0-8.158,0.021-12.972,0.04v-17.34h12.972
	c4.77,0,8.65,3.88,8.65,8.65C183.27,357.382,179.389,361.262,174.619,361.262z"/>
<path fill="#FDA810" d="M109.257,307.01c-0.021-0.056-0.043-0.112-0.066-0.168c-1.365-3.341-4.591-5.503-8.201-5.508
	c-3.61,0.004-6.836,2.167-8.201,5.508c-0.023,0.056-0.045,0.112-0.066,0.168l-22.53,59.155c-1.475,3.871,0.469,8.204,4.339,9.678
	c3.87,1.472,8.204-0.467,9.679-4.339l3.777-9.902h26.006l3.777,9.902c1.475,3.872,5.809,5.812,9.679,4.339
	c3.87-1.474,5.813-5.808,4.339-9.678L109.257,307.01z M93.708,346.601l7.281-19.086l7.281,19.086H93.708z"/>
<path fill="#FDA810" d="M273.954,354.62c-3.174-2.663-7.904-2.249-10.566,0.924c-0.523,0.623-1.088,1.206-1.679,1.732
	c-3.022,2.692-6.884,4.057-11.477,4.057c-12.406,0-22.5-10.093-22.5-22.5s10.094-22.5,22.5-22.5c4.51,0,8.858,1.327,12.575,3.838
	c3.433,2.319,8.095,1.416,10.413-2.016s1.416-8.095-2.017-10.414c-6.205-4.192-13.458-6.409-20.972-6.409
	c-20.678,0-37.5,16.822-37.5,37.5s16.822,37.5,37.5,37.5c8.265,0,15.684-2.717,21.454-7.857c1.131-1.007,2.204-2.115,3.191-3.291
	C277.541,362.013,277.127,357.282,273.954,354.62L273.954,354.62z"/>
<path fill="#1960AE" d="M173.167,165.667C77.683,165.667,0,243.349,0,338.833c0,42.656,15.51,83.329,43.775,115.075
	c-7.604,17.112-21.644,30.756-39.09,37.819C1.854,492.874,0,495.623,0,498.679c0,3.055,1.854,5.805,4.686,6.952
	C15.124,509.857,26.165,512,37.5,512c20.295,0,39.744-6.969,55.346-19.73c24.661,12.922,52.316,19.73,80.321,19.73
	c95.484,0,173.166-77.683,173.166-173.167S268.651,165.667,173.167,165.667z M173.167,497c-27.212,0-54.056-7.033-77.627-20.338
	c-1.152-0.651-2.423-0.969-3.685-0.969c-1.847,0-3.678,0.682-5.099,1.999C73.316,490.143,55.823,497,37.5,497
	c-3.374,0-6.716-0.229-10.014-0.684c14.516-10.125,25.801-24.531,32.053-41.363c0.993-2.672,0.385-5.676-1.568-7.751
	C30.261,417.757,15,379.271,15,338.833c0-87.213,70.953-158.167,158.167-158.167c87.213,0,158.166,70.953,158.166,158.167
	S260.38,497,173.167,497z"/>
</svg>
