<?xml version="1.0" encoding="utf-8"?>
<!-- Generator: Adobe Illustrator 17.0.0, SVG Export Plug-In . SVG Version: 6.00 Build 0)  -->
<!DOCTYPE svg PUBLIC "-//W3C//DTD SVG 1.1//EN" "http://www.w3.org/Graphics/SVG/1.1/DTD/svg11.dtd">
<svg version="1.1" id="Capa_1" xmlns="http://www.w3.org/2000/svg" xmlns:xlink="http://www.w3.org/1999/xlink" x="0px" y="0px"
	 width="1920px" height="1280px" viewBox="0 0 1920 1280" enable-background="new 0 0 1920 1280" xml:space="preserve">
<g>
	<g>
		<path fill="#1960AE" d="M1320,0H600c-44.08,0-80,35.92-80,80v1120c0,44.16,35.92,80,80,80h720c44.16,0,80-35.84,80-80V80
			C1400,35.92,1364.16,0,1320,0z M1320,1040H600V160h720V1040z"/>
	</g>
</g>
<g>
	<g>
		<path fill="#FFAA39" d="M880,320H720c-22.08,0-40,17.92-40,40v160c0,22.08,17.92,40,40,40h160c22.08,0,40-17.92,40-40V360
			C920,337.92,902.08,320,880,320z"/>
	</g>
</g>
<g>
	<g>
		<path fill="#FFCA76" d="M880,640H720c-22.08,0-40,17.92-40,40v160c0,22.08,17.92,40,40,40h160c22.08,0,40-17.92,40-40V680
			C920,657.92,902.08,640,880,640z"/>
	</g>
</g>
<g>
	<g>
		<path fill="#F28F00" d="M1200,320h-160c-22.08,0-40,17.92-40,40v160c0,22.08,17.92,40,40,40h160c22.08,0,40-17.92,40-40V360
			C1240,337.92,1222.08,320,1200,320z"/>
	</g>
</g>
</svg>
