<?xml version="1.0" encoding="utf-8"?>
<!-- Generator: Adobe Illustrator 17.0.0, SVG Export Plug-In . SVG Version: 6.00 Build 0)  -->
<!DOCTYPE svg PUBLIC "-//W3C//DTD SVG 1.1//EN" "http://www.w3.org/Graphics/SVG/1.1/DTD/svg11.dtd">
<svg version="1.1" id="Layer_1" xmlns="http://www.w3.org/2000/svg" xmlns:xlink="http://www.w3.org/1999/xlink" x="0px" y="0px"
	 width="512px" height="512px" viewBox="0 0 512 512" enable-background="new 0 0 512 512" xml:space="preserve">
<path fill="#1960AE" d="M512,315.326V196.673h-52.01c-4.332-14.924-10.295-29.298-17.815-42.949l36.795-36.795l-83.9-83.9
	l-36.795,36.796c-13.65-7.52-28.025-13.483-42.949-17.815V0H196.673v52.01c-14.924,4.332-29.297,10.295-42.948,17.815L116.931,33.03
	l-83.9,83.9l36.795,36.795c-7.52,13.65-13.482,28.024-17.814,42.949H0v118.654h52.011c4.332,14.925,10.294,29.298,17.814,42.948
	L33.03,395.069l83.9,83.9l36.795-36.795c9.623,5.302,19.612,9.812,29.894,13.54v-81.689c-40.166-24.962-64.76-68.802-64.76-116.501
	c0-55.421,33.026-105.086,84.14-126.525l20.792-8.722V241.75l32.224,19.367l32.224-19.367V122.279l20.792,8.722
	c51.113,21.438,84.14,71.103,84.14,126.525c0,47.649-24.558,91.467-64.664,116.44v81.716c10.23-3.719,20.177-8.218,29.77-13.505
	l36.794,36.795l83.9-83.9l-36.795-36.795c7.519-13.649,13.482-28.023,17.814-42.948H512V315.326z"/>
<path fill="#FDA810" d="M298.521,356.335l7.925-4.236c34.999-18.708,56.74-54.947,56.74-94.574
	c0-35.234-17.084-67.491-44.961-87.316v88.505l-62.209,37.389l-62.209-37.389v-88.505c-27.877,19.825-44.962,52.082-44.962,87.316
	c0,39.668,21.773,75.925,56.824,94.619l7.937,4.233V512h84.916V356.335H298.521z"/>
</svg>
