<?xml version="1.0" encoding="utf-8"?>
<!-- Generator: Adobe Illustrator 17.0.0, SVG Export Plug-In . SVG Version: 6.00 Build 0)  -->
<!DOCTYPE svg PUBLIC "-//W3C//DTD SVG 1.1//EN" "http://www.w3.org/Graphics/SVG/1.1/DTD/svg11.dtd">
<svg version="1.1" id="Solid" xmlns="http://www.w3.org/2000/svg" xmlns:xlink="http://www.w3.org/1999/xlink" x="0px" y="0px"
	 width="512px" height="512px" viewBox="0 0 512 512" enable-background="new 0 0 512 512" xml:space="preserve">
<path fill="#FDA810" d="M245.748,329.825V293.39h36.435v24.06c-2.448,3.858-4.383,8.018-5.756,12.375H245.748z"/>
<path fill="#FDA810" d="M355.054,1.909H172.878c-11.575,0.015-21.889,7.309-25.76,18.218h233.694
	C376.942,9.218,366.628,1.924,355.054,1.909z"/>
<rect x="291.292" y="220.519" fill="#FDA810" width="18.218" height="18.218"/>
<rect x="291.292" y="147.649" fill="#FDA810" width="18.218" height="18.218"/>
<path fill="#FDA810" d="M327.727,167.434v-28.893c0-5.031-4.078-9.109-9.109-9.109h-36.435c-5.031,0-9.109,4.078-9.109,9.109v36.435
	c0,5.031,4.078,9.109,9.109,9.109h28.893c-1.038,2.925-1.568,6.005-1.567,9.109v9.109h-27.326c-5.031,0-9.109,4.078-9.109,9.109
	v36.435c0,5.031,4.078,9.109,9.109,9.109h27.326v42.118c-3.129,0.569-6.184,1.486-9.109,2.733v-17.524
	c0-5.031-4.078-9.109-9.109-9.109H236.64c-5.031,0-9.109,4.078-9.109,9.109v45.544h-45.544V220.469
	c12.566-9.455,22.487-21.985,28.806-36.385h34.955c5.031,0,9.109-4.078,9.109-9.109v-36.435c0-5.031-4.078-9.109-9.109-9.109
	h-29.159c-1.281-6.261-3.224-12.367-5.795-18.218h135.151v56.219C340.052,165.345,333.62,165.345,327.727,167.434z"/>
<path fill="#FFEED2" d="M254.857,211.411c0-5.031-4.078-9.109-9.109-9.109h-36.435c-5.031,0-9.109,4.078-9.109,9.109v36.435
	c0,5.031,4.078,9.109,9.109,9.109h36.435c5.031,0,9.109-4.078,9.109-9.109V211.411z"/>
<rect x="218.422" y="220.519" fill="#FDA810" width="18.218" height="18.218"/>
<path fill="#FDA810" d="M145.552,58.395V38.344H382.38v192.856c-5.892-2.093-12.323-2.097-18.218-0.011V102.106
	c0-5.031-4.078-9.109-9.109-9.109H200.154C186.786,75.186,167.366,62.879,145.552,58.395z"/>
<path fill="#FFEED2" d="M236.64,65.67c0,5.031,4.078,9.109,9.109,9.109h109.305c5.031,0,9.109-4.078,9.109-9.109
	c0-5.031-4.078-9.109-9.109-9.109H245.748C240.718,56.562,236.64,60.64,236.64,65.67z"/>
<circle fill="#FFEED2" cx="209.313" cy="65.67" r="9.109"/>
<path fill="#1960AE" d="M400.597,329.825c0,5.031-4.078,9.109-9.109,9.109c-5.031,0-9.109-4.078-9.109-9.109v-72.87
	c0-5.031-4.078-9.109-9.109-9.109c-5.031,0-9.109,4.078-9.109,9.109v60.4c0,5.031-4.078,9.109-9.109,9.109
	c-5.031,0-9.109-4.078-9.109-9.109V193.193c0-5.031-4.078-9.109-9.109-9.109c-5.031,0-9.109,4.078-9.109,9.109v114.185
	c-0.002,0.712-0.088,1.422-0.256,2.114c0.168,0.692,0.254,1.402,0.256,2.114v36.435c0,5.031-4.078,9.109-9.109,9.109
	c-5.031,0-9.109-4.078-9.109-9.109v-30.15c-16.234,5.465-18.218,25.61-18.218,35.03v52.229l26.122,45.61
	c0.79,1.378,1.205,2.938,1.205,4.526V512h118.414v-54.327c0-1.062,0.186-2.115,0.548-3.113l17.67-48.59V293.39
	c0-5.031-4.078-9.109-9.109-9.109s-9.109,4.078-9.109,9.109v54.653c0,5.031-4.078,9.109-9.109,9.109
	c-5.031,0-9.109-4.078-9.109-9.109v-81.979c0-5.031-4.078-9.109-9.109-9.109c-5.031,0-9.109,4.078-9.109,9.109V329.825z"/>
<rect x="218.422" y="147.649" fill="#FDA810" width="18.218" height="18.218"/>
<path fill="#FDA810" d="M273.075,402.695H145.552V236.904c6.261-1.282,12.367-3.224,18.218-5.795v107.825
	c0,5.031,4.078,9.109,9.109,9.109h100.335c-0.088,1.602-0.139,3.226-0.139,4.88V402.695z"/>
<path fill="#FFEED2" d="M218.422,375.368c0-5.031-4.078-9.109-9.109-9.109h-36.435c-5.031,0-9.109,4.078-9.109,9.109
	c0,5.031,4.078,9.109,9.109,9.109h36.435C214.344,384.477,218.422,380.399,218.422,375.368z"/>
<path fill="#FDA810" d="M147.119,420.912c3.871,10.908,14.185,18.203,25.76,18.218h116.88l-10.433-18.218H147.119z"/>
<path fill="#1960AE" d="M127.334,220.519c-40.245,0-72.87-32.625-72.87-72.87s32.625-72.87,72.87-72.87s72.87,32.625,72.87,72.87
	C200.159,187.876,167.561,220.474,127.334,220.519z"/>
<path fill="#FDA810" d="M170.211,113.882c-3.557-3.557-9.324-3.557-12.882,0c0,0,0,0,0,0l-48.212,48.213L97.34,150.317
	c-3.557-3.557-9.325-3.557-12.882,0c-3.557,3.557-3.557,9.325,0,12.882l18.218,18.218c3.557,3.557,9.324,3.557,12.882,0c0,0,0,0,0,0
	l54.653-54.653C173.768,123.207,173.768,117.44,170.211,113.882C170.211,113.882,170.211,113.882,170.211,113.882z"/>
</svg>
