<?xml version="1.0" encoding="utf-8"?>
<!-- Generator: Adobe Illustrator 17.0.0, SVG Export Plug-In . SVG Version: 6.00 Build 0)  -->
<!DOCTYPE svg PUBLIC "-//W3C//DTD SVG 1.1//EN" "http://www.w3.org/Graphics/SVG/1.1/DTD/svg11.dtd">
<svg version="1.1" id="Capa_1" xmlns="http://www.w3.org/2000/svg" xmlns:xlink="http://www.w3.org/1999/xlink" x="0px" y="0px"
	 width="1920px" height="1280px" viewBox="0 0 1920 1280" enable-background="new 0 0 1920 1280" xml:space="preserve">
<path fill="#FDA810" d="M1515.888,179.144c-2.298-16.503-14.172-30.079-30.224-34.54L971.21,1.534
	c-7.334-2.041-15.081-2.041-22.421,0l-514.454,143.07c-16.052,4.462-27.926,18.032-30.224,34.54
	c-2.984,21.456-71.055,528.414,103.543,780.61c174.392,251.895,431.658,316.447,442.523,319.074c3.229,0.781,6.52,1.166,9.822,1.166
	s6.592-0.391,9.822-1.166c10.87-2.627,268.136-67.179,442.523-319.074C1586.943,707.564,1518.872,200.606,1515.888,179.144z"/>
<path fill="#1960AE" d="M1291.757,475.111l-350.91,350.91c-8.165,8.165-18.874,12.253-29.577,12.253
	c-10.703,0-21.411-4.083-29.577-12.253L664.73,609.057c-7.847-7.842-12.253-18.483-12.253-29.577s4.412-21.735,12.253-29.577
	l43.079-43.079c16.336-16.33,42.823-16.336,59.153,0l144.308,144.308l278.254-278.259c7.842-7.847,18.483-12.253,29.577-12.253
	c11.093,0,21.735,4.406,29.577,12.253l43.079,43.079C1308.093,432.289,1308.093,458.775,1291.757,475.111z"/>
</svg>
